<svg width="36" height="53" viewBox="0 0 36 53" fill="none" xmlns="http://www.w3.org/2000/svg">
<path d="M16.5087 3.05469C14.0366 3.05469 12.0281 5.06317 12.0281 7.53534C12.0281 10.0075 14.0366 12.0211 16.5087 12.0211C18.9809 12.0211 20.9894 10.0075 20.9894 7.53534C20.9919 5.06317 18.9809 3.05469 16.5087 3.05469Z" stroke="#41B24F" stroke-width="2" stroke-miterlimit="10"/>
<path d="M29.0188 29.3814C28.93 28.8363 28.4162 28.4663 27.8711 28.5551C27.326 28.6438 26.956 29.1577 27.0448 29.7028L29.0188 29.3814ZM30.7909 46.4861L29.8039 46.6468L29.809 46.678L29.816 46.7088L30.7909 46.4861ZM29.9557 49.9855L30.7368 50.61L30.737 50.6098L29.9557 49.9855ZM22.6084 48.5612L21.6224 48.728L21.6328 48.7898L21.651 48.8499L22.6084 48.5612ZM20.0693 33.5547L21.0553 33.3879C20.9722 32.8967 20.5403 32.5416 20.0423 32.5551C19.5443 32.5685 19.1322 32.9465 19.0758 33.4414L20.0693 33.5547ZM18.4095 48.1154L19.3898 48.3129L19.3982 48.2711L19.4031 48.2287L18.4095 48.1154ZM10.9597 50.2033L10.224 50.8806L10.225 50.8817L10.9597 50.2033ZM9.85297 46.9779L10.8494 47.0624L10.8494 47.062L9.85297 46.9779ZM10.9366 39.5102L9.95214 39.3347L9.95212 39.3348L10.9366 39.5102ZM11.5435 23.9129L10.5573 24.0785L10.5575 24.0794L11.5435 23.9129ZM10.2114 22.7319L10.191 23.7317L10.1919 23.7317L10.2114 22.7319ZM2.5105 18.6509L1.71241 19.2534L1.7125 19.2536L2.5105 18.6509ZM3.03568 6.90231L2.1418 6.454L2.14171 6.45418L3.03568 6.90231ZM7.5855 5.39083L8.03381 4.49695L8.03217 4.49613L7.5855 5.39083ZM9.09698 9.94322L9.99046 10.3923L9.99114 10.391L9.09698 9.94322ZM8.37711 14.0293L7.44424 14.3896L7.72093 15.1061L8.48459 15.0236L8.37711 14.0293ZM8.73064 13.9679L8.93325 14.9471L8.93398 14.947L8.73064 13.9679ZM13.6058 15.0464L13.1319 15.927L13.3615 16.0505L13.6221 16.0463L13.6058 15.0464ZM22.4185 13.8346L22.1153 12.8817L22.1083 12.884L22.4185 13.8346ZM22.7541 13.2762L23.6889 13.6314L23.6902 13.628L22.7541 13.2762ZM25.6388 10.7297L25.4274 9.75229L25.4264 9.75251L25.6388 10.7297ZM27.0811 9.96371L28.033 10.2701L28.0347 10.2648L27.0811 9.96371ZM26.5892 8.8903L25.854 9.56816L25.8549 9.56916L26.5892 8.8903ZM24.6243 7.13288L24.0134 7.92459L24.0144 7.92541L24.6243 7.13288ZM24.0043 2.37811L23.2121 1.76787L23.2118 1.76827L24.0043 2.37811ZM28.7591 1.75814L28.1475 2.54934L28.1493 2.55068L28.7591 1.75814ZM34.5693 12.9124L35.5559 13.0756L35.556 13.075L34.5693 12.9124ZM26.8351 20.9822L26.5131 20.0354L26.5129 20.0355L26.8351 20.9822ZM26.3663 21.5688L25.3817 21.394L25.3505 21.5697L25.382 21.7453L26.3663 21.5688ZM26.0968 25.7312C26.1943 26.2748 26.714 26.6365 27.2576 26.539C27.8012 26.4415 28.1629 25.9218 28.0654 25.3782L26.0968 25.7312ZM27.0448 29.7028L29.8039 46.6468L31.7779 46.3254L29.0188 29.3814L27.0448 29.7028ZM29.816 46.7088C30.0171 47.5893 29.7959 48.5835 29.1745 49.3613L30.737 50.6098C31.7244 49.3739 32.1077 47.7602 31.7658 46.2634L29.816 46.7088ZM29.1747 49.3611C28.558 50.1324 27.6417 50.5713 26.6561 50.5713V52.5713C28.2477 52.5713 29.7395 51.8574 30.7368 50.61L29.1747 49.3611ZM26.6561 50.5713C25.22 50.5713 23.9817 49.6518 23.5658 48.2724L21.651 48.8499C22.3212 51.0725 24.3365 52.5713 26.6561 52.5713V50.5713ZM23.5944 48.3943L21.0553 33.3879L19.0834 33.7215L21.6224 48.728L23.5944 48.3943ZM19.0758 33.4414L17.416 48.0021L19.4031 48.2287L21.0629 33.668L19.0758 33.4414ZM17.4292 47.9179C17.1116 49.4942 15.7723 50.5713 14.2568 50.5713V52.5713C16.7428 52.5713 18.8877 50.8048 19.3898 48.3129L17.4292 47.9179ZM14.2568 50.5713C13.1506 50.5713 12.2939 50.1742 11.6944 49.5249L10.225 50.8817C11.2292 51.9693 12.6321 52.5713 14.2568 52.5713V50.5713ZM11.6954 49.526C11.0823 48.86 10.7733 47.9601 10.8494 47.0624L8.85655 46.8935C8.73283 48.3527 9.23335 49.8045 10.224 50.8806L11.6954 49.526ZM10.8494 47.062C11.0653 44.5016 11.4949 42.0783 11.9211 39.6855L9.95212 39.3348C9.52778 41.7173 9.08127 44.2281 8.85651 46.8939L10.8494 47.062ZM11.9211 39.6857C12.8342 34.5628 13.7711 31.0984 12.5296 23.7464L10.5575 24.0794C11.7343 31.0481 10.8682 34.1948 9.95214 39.3347L11.9211 39.6857ZM12.5297 23.7473C12.3412 22.6246 11.393 21.7547 10.2308 21.7321L10.1919 23.7317C10.3466 23.7347 10.5205 23.8589 10.5573 24.0785L12.5297 23.7473ZM10.2318 21.7321C7.66776 21.6799 4.99481 20.2812 3.3085 18.0482L1.7125 19.2536C3.74085 21.9394 6.97038 23.6661 10.191 23.7317L10.2318 21.7321ZM3.30859 18.0484C1.51251 15.6694 1.50698 12.1833 3.92964 7.35045L2.14171 6.45418C-0.410714 11.5459 -0.769778 15.9657 1.71241 19.2534L3.30859 18.0484ZM3.92955 7.35063C4.5177 6.17794 5.95484 5.69444 7.13883 6.28553L8.03217 4.49613C5.86016 3.41178 3.22397 4.2963 2.1418 6.454L3.92955 7.35063ZM7.13719 6.28471C8.31383 6.87483 8.79348 8.31597 8.20283 9.49545L9.99114 10.391C11.0759 8.2247 10.1978 5.58227 8.03381 4.49695L7.13719 6.28471ZM8.20351 9.49411C7.66412 10.5672 7.40151 11.5724 7.30477 12.4005C7.21248 13.1905 7.26087 13.9147 7.44424 14.3896L9.30998 13.6691C9.31241 13.6754 9.30404 13.6545 9.29327 13.5978C9.28304 13.5439 9.2729 13.4697 9.26637 13.3752C9.25327 13.1859 9.25598 12.9345 9.29125 12.6326C9.36167 12.0299 9.55891 11.2509 9.99046 10.3923L8.20351 9.49411ZM8.48459 15.0236C8.63166 15.0077 8.78319 14.9782 8.93325 14.9471L8.52804 12.9886C8.38092 13.019 8.31213 13.0305 8.26963 13.0351L8.48459 15.0236ZM8.93398 14.947C9.43968 14.842 9.87661 14.7866 10.4606 14.8836C11.0678 14.9844 11.895 15.2613 13.1319 15.927L14.0797 14.1658C12.7317 13.4404 11.6888 13.0602 10.7883 12.9106C9.8647 12.7572 9.1565 12.8581 8.5273 12.9888L8.93398 14.947ZM13.6221 16.0463C17.2884 15.9864 20.2841 15.5831 22.7288 14.7853L22.1083 12.884C19.9212 13.5977 17.1425 13.9885 13.5895 14.0465L13.6221 16.0463ZM22.7217 14.7876C22.7294 14.7851 22.8833 14.7422 23.0365 14.6425C23.2108 14.5291 23.3237 14.3892 23.398 14.2729C23.5107 14.0967 23.6028 13.8581 23.6889 13.6314L21.8194 12.9209C21.772 13.0456 21.7401 13.1255 21.7174 13.178C21.6921 13.2365 21.6921 13.2283 21.7132 13.1953C21.7421 13.1501 21.8146 13.0515 21.9458 12.9661C22.0056 12.9272 22.058 12.9039 22.0901 12.8912C22.1152 12.8813 22.1353 12.8754 22.1153 12.8817L22.7217 14.7876ZM23.6902 13.628C23.838 13.2348 23.9824 12.8698 24.2722 12.539C24.5434 12.2296 24.9965 11.8926 25.8511 11.7069L25.4264 9.75251C24.1829 10.0228 23.341 10.5671 22.768 11.2209C22.2138 11.8534 21.9649 12.5336 21.8181 12.9244L23.6902 13.628ZM25.8501 11.7071C26.399 11.5884 26.8492 11.4204 27.1979 11.2139C27.505 11.0321 27.8849 10.7301 28.033 10.2701L26.1292 9.65735C26.1731 9.52096 26.2382 9.45517 26.2424 9.45086C26.2523 9.44072 26.2375 9.4583 26.179 9.49293C26.0615 9.5625 25.8264 9.66603 25.4274 9.75229L25.8501 11.7071ZM28.0347 10.2648C28.1851 9.78836 28.0359 9.33793 27.9146 9.07269C27.7754 8.76802 27.566 8.47373 27.3235 8.21144L25.8549 9.56916C25.989 9.71421 26.064 9.83493 26.0957 9.90429C26.1113 9.93828 26.1073 9.9401 26.1027 9.91164C26.0985 9.88622 26.0866 9.79205 26.1275 9.66258L28.0347 10.2648ZM27.3244 8.21244C26.7616 7.60208 26.0556 6.9725 25.2341 6.34035L24.0144 7.92541C24.771 8.50757 25.3869 9.06156 25.854 9.56816L27.3244 8.21244ZM25.2352 6.34117C24.1904 5.53502 23.9965 4.02801 24.7968 2.98795L23.2118 1.76827C21.7372 3.68457 22.0966 6.44558 24.0134 7.92459L25.2352 6.34117ZM24.7965 2.98835C25.6035 1.9407 27.1092 1.74676 28.1475 2.54934L29.3707 0.96695C27.4526 -0.515632 24.6903 -0.151089 23.2121 1.76787L24.7965 2.98835ZM28.1493 2.55068C32.375 5.80216 34.1289 9.43422 33.5826 12.7498L35.556 13.075C36.2701 8.7409 33.8996 4.45176 29.3689 0.965606L28.1493 2.55068ZM33.5828 12.7491C33.0606 15.9044 30.5053 18.6774 26.5131 20.0354L27.1572 21.9289C31.6601 20.3972 34.8842 17.1345 35.5559 13.0756L33.5828 12.7491ZM26.5129 20.0355C25.8723 20.2536 25.4833 20.8221 25.3817 21.394L27.3509 21.7437C27.3471 21.7652 27.3371 21.7935 27.3122 21.8248C27.287 21.8566 27.2378 21.9015 27.1574 21.9288L26.5129 20.0355ZM25.382 21.7453L26.0968 25.7312L28.0654 25.3782L27.3506 21.3923L25.382 21.7453Z" fill="#41B24F"/>
</svg>
