<svg width="55" height="43" viewBox="0 0 55 43" fill="none" xmlns="http://www.w3.org/2000/svg">
<path fill-rule="evenodd" clip-rule="evenodd" d="M0.0280762 36.2353V26.4688L3.95442 27.205L3.9761 27.2096C4.28605 27.2748 4.54196 27.331 4.73532 27.3771C4.83052 27.3997 4.92613 27.4236 5.01234 27.4478C5.01234 27.4478 5.01536 27.4486 5.01768 27.4492C5.02664 27.4517 5.04344 27.4563 5.06635 27.463L6.54134 27.7233C6.85668 27.7752 7.6047 27.8648 8.85371 27.9929C9.74491 28.0819 10.6536 28.1267 11.5801 28.1267C13.4187 28.1267 14.172 27.8783 14.3463 27.7674L14.3631 27.7567L14.3802 27.7463L14.3817 27.7453C14.3831 27.7435 14.3857 27.74 14.3892 27.7343C14.3946 27.7255 14.4031 27.7102 14.4134 27.6865C14.4573 27.5853 14.5241 27.3512 14.5241 26.9107V23.4595C14.5079 23.451 14.4893 23.4418 14.4683 23.432C14.0598 23.2419 13.2001 23.0547 11.6761 23.0547H4.01208V14.2547H11.6761C12.7397 14.2547 13.1756 14.0498 13.304 13.9559C13.3472 13.9244 13.3569 13.9066 13.3664 13.8857C13.381 13.8537 13.4201 13.7481 13.4201 13.5187V10.4947C13.4201 10.3352 13.4085 10.224 13.3963 10.1524C13.3474 10.1339 13.2771 10.1112 13.1808 10.0883L13.1699 10.0857L13.159 10.083C12.7638 9.98417 12.0031 9.90269 10.7641 9.90269C9.04625 9.90269 6.31381 10.0857 2.51674 10.4686L0.316076 10.6905V1.61467L2.18401 1.49105C6.53556 1.20308 9.66689 1.05469 11.5321 1.05469C15.492 1.05469 18.7167 1.49321 20.8941 2.61976C22.0925 3.2313 23.0588 4.11822 23.7084 5.2874C24.3503 6.44281 24.6201 7.75969 24.6201 9.15069V14.2867C24.6201 15.5706 24.237 16.7575 23.4569 17.7647C23.7587 18.0058 24.0385 18.266 24.2933 18.5469C25.3341 19.694 25.8681 21.0902 25.8681 22.6387V27.7267C25.8681 30.8863 24.7434 33.5233 22.2001 35.1297C19.8877 36.5901 16.5384 37.1667 12.4921 37.1667C9.69914 37.1667 6.12906 36.9182 1.80558 36.4343L0.0280762 36.2353ZM21.7561 16.6867C22.3321 16.0147 22.6201 15.2147 22.6201 14.2867V9.15069C22.6201 6.87869 21.7401 5.29469 19.9801 4.39869C18.2521 3.50269 15.4361 3.05469 11.5321 3.05469C9.74008 3.05469 6.66808 3.19869 2.31608 3.48669V8.47869C3.01628 8.40808 3.68295 8.34396 4.31608 8.28634C7.12614 8.03057 9.27547 7.90269 10.7641 7.90269C12.0441 7.90269 13.0041 7.98269 13.6441 8.14269C14.3161 8.30269 14.7801 8.57469 15.0361 8.95869C15.2921 9.31069 15.4201 9.82269 15.4201 10.4947V13.5187C15.4201 15.3427 14.1721 16.2547 11.6761 16.2547H6.01208V21.0547H11.6761C14.9081 21.0547 16.5241 21.8067 16.5241 23.3107V26.9107C16.5241 28.1587 16.1561 29.0067 15.4201 29.4547C14.7161 29.9027 13.4361 30.1267 11.5801 30.1267C10.5881 30.1267 9.61208 30.0787 8.65208 29.9827C7.40408 29.8547 6.58808 29.7587 6.20408 29.6947L4.57208 29.4067C4.52681 29.3841 4.34548 29.3374 4.02808 29.2668C3.89672 29.2375 3.74205 29.2042 3.56408 29.1667L2.02808 28.8787V34.4467C6.31608 34.9267 9.80408 35.1667 12.4921 35.1667C16.4281 35.1667 19.3081 34.5907 21.1321 33.4387C22.9561 32.2867 23.8681 30.3827 23.8681 27.7267V22.6387C23.8681 21.2185 23.2314 20.0515 21.9581 19.1378C21.3378 18.6926 20.5665 18.3076 19.6441 17.9827C20.5038 17.7598 21.2051 17.331 21.748 16.6962C21.7507 16.693 21.7534 16.6899 21.7561 16.6867ZM45.6158 8.81469C45.8078 9.29469 45.9038 10.0787 45.9038 11.1667V27.0547C45.9038 28.1427 45.8078 28.9267 45.6158 29.4067C45.4238 29.8867 45.0398 30.2227 44.4638 30.4147C43.8878 30.5747 42.9278 30.6547 41.5838 30.6547C40.2078 30.6547 39.2158 30.5747 38.6078 30.4147C38.0318 30.2227 37.6478 29.8867 37.4558 29.4067C37.2638 28.9267 37.1678 28.1427 37.1678 27.0547V11.1667C37.1678 10.0787 37.2638 9.29469 37.4558 8.81469C37.6478 8.33469 38.0318 8.01469 38.6078 7.85469C39.2158 7.66269 40.2078 7.56669 41.5838 7.56669C42.9278 7.56669 43.8878 7.66269 44.4638 7.85469C45.0398 8.01469 45.4238 8.33469 45.6158 8.81469ZM39.2732 28.5153C39.2572 28.4395 39.2403 28.3407 39.225 28.2156C39.1898 27.9279 39.1678 27.5454 39.1678 27.0547V11.1667C39.1678 10.676 39.1898 10.2935 39.225 10.0058C39.2378 9.90144 39.2516 9.81541 39.2652 9.74575C39.5903 9.65744 40.3096 9.56669 41.5838 9.56669C42.8662 9.56669 43.5418 9.66381 43.8061 9.74404C43.8198 9.814 43.8338 9.90058 43.8467 10.0058C43.8819 10.2935 43.9038 10.676 43.9038 11.1667V27.0547C43.9038 27.5454 43.8819 27.9279 43.8467 28.2156C43.8311 28.3424 43.8141 28.4421 43.7978 28.5183C43.4455 28.589 42.7476 28.6547 41.5838 28.6547C40.4042 28.6547 39.6689 28.5908 39.2732 28.5153Z" fill="#41B24F"/>
<path d="M52.6157 16.5108C52.6157 17.0631 53.0634 17.5108 53.6157 17.5108C54.168 17.5108 54.6157 17.0631 54.6157 16.5108H52.6157ZM54.6157 23.6865C54.6157 23.1342 54.168 22.6865 53.6157 22.6865C53.0634 22.6865 52.6157 23.1342 52.6157 23.6865H54.6157ZM40.6157 2.68652H42.6157V0.686523H40.6157V2.68652ZM42.6157 35.6865H40.6157V37.6865H42.6157V35.6865ZM30.6157 25.6865V12.6865H28.6157V25.6865H30.6157ZM52.6157 12.6865V16.5108H54.6157V12.6865H52.6157ZM52.6157 23.6865V25.6865H54.6157V23.6865H52.6157ZM40.6157 35.6865C35.0929 35.6865 30.6157 31.2094 30.6157 25.6865H28.6157C28.6157 32.3139 33.9883 37.6865 40.6157 37.6865V35.6865ZM42.6157 37.6865C49.2431 37.6865 54.6157 32.3139 54.6157 25.6865H52.6157C52.6157 31.2094 48.1386 35.6865 42.6157 35.6865V37.6865ZM42.6157 2.68652C48.1386 2.68652 52.6157 7.16368 52.6157 12.6865H54.6157C54.6157 6.05911 49.2431 0.686523 42.6157 0.686523V2.68652ZM40.6157 0.686523C33.9883 0.686523 28.6157 6.05911 28.6157 12.6865H30.6157C30.6157 7.16368 35.0929 2.68652 40.6157 2.68652V0.686523Z" fill="#41B24F"/>
</svg>
